<svg width="56" height="56" viewBox="0 0 56 56" fill="none" xmlns="http://www.w3.org/2000/svg">
<g id="car-wash(2) 1" clip-path="url(#clip0_1_301)">
<path id="Vector" d="M46.5268 32.9937L41.3324 19.403H14.6355L9.441 32.9937C7.4291 33.9511 6.03499 36.004 6.03499 38.3765V49.6498H8.98085V50.6517C8.98085 53.6006 11.3803 56 14.3295 56C17.2784 56 19.6778 53.6006 19.6778 50.6517V49.6498H36.2904V50.6517C36.2904 53.6006 38.6894 56 41.6387 56C44.588 56 46.987 53.6006 46.987 50.6517V49.6498H49.9332V38.3765C49.9328 36.004 48.5387 33.9511 46.5268 32.9937ZM16.8926 22.6825H39.0752L42.7961 32.4182H38.0861L30.6657 26.2863L28.5769 28.8143L32.9383 32.4182H26.9265L19.5061 26.2863L17.4173 28.8143L21.7782 32.4182H13.1721L16.8926 22.6825ZM16.3983 50.6517C16.3983 51.7925 15.4703 52.7205 14.3291 52.7205C13.1884 52.7205 12.2604 51.7925 12.2604 50.6517V49.6498H16.3983V50.6517ZM24.5518 46.3703V43.1425H31.416V46.3703H24.5518ZM34.6955 46.3703V39.8629H21.2723V46.3703H9.31411V38.3765C9.31411 36.8991 10.5159 35.6977 11.9934 35.6977H43.9749C45.4519 35.6977 46.6537 36.8995 46.6537 38.3765V46.3703H34.6955ZM43.7074 50.6517C43.7074 51.7925 42.7794 52.7205 41.6387 52.7205C40.4975 52.7205 39.5695 51.7925 39.5695 50.6517V49.6498H43.7074V50.6517Z" fill="white"/>
<path id="Vector_2" d="M0 0H55.9684V3.27954H0V0Z" fill="white"/>
<path id="Vector_3" d="M2.34668 5.435H5.62579V10.9008H2.34668V5.435Z" fill="white"/>
<path id="Vector_4" d="M8.32218 5.435H11.6013V13.7368H8.32218V5.435Z" fill="white"/>
<path id="Vector_5" d="M8.32218 16.364H11.6013V19.9285H8.32218V16.364Z" fill="white"/>
<path id="Vector_6" d="M2.34668 13.2083H5.62579V16.5793H2.34668V13.2083Z" fill="white"/>
<path id="Vector_7" d="M14.2246 5.435H17.5037V10.9008H14.2246V5.435Z" fill="white"/>
<path id="Vector_8" d="M14.2246 13.2083H17.5037V16.5793H14.2246V13.2083Z" fill="white"/>
<path id="Vector_9" d="M20.2441 5.435H23.5237V15.3586H20.2441V5.435Z" fill="white"/>
<path id="Vector_10" d="M26.2646 5.435H29.5442V10.9008H26.2646V5.435Z" fill="white"/>
<path id="Vector_11" d="M26.2646 13.2083H29.5442V16.5793H26.2646V13.2083Z" fill="white"/>
<path id="Vector_12" d="M32.2842 5.435H35.5633V13.2079H32.2842V5.435Z" fill="white"/>
<path id="Vector_13" d="M38.3037 5.34998H41.5833V14.8938H38.3037V5.34998Z" fill="white"/>
<path id="Vector_14" d="M44.3231 5.435H47.6022V10.9008H44.3231V5.435Z" fill="white"/>
<path id="Vector_15" d="M44.3231 13.2083H47.6022V16.5793H44.3231V13.2083Z" fill="white"/>
<path id="Vector_16" d="M50.3427 5.435H53.6222V13.2079H50.3427V5.435Z" fill="white"/>
<path id="Vector_17" d="M50.3427 15.3586H53.6222V19.2607H50.3427V15.3586Z" fill="white"/>
<path id="Vector_18" d="M17.4349 41.184C17.4349 42.4366 16.4194 43.4522 15.1667 43.4522C13.914 43.4522 12.8984 42.4366 12.8984 41.184C12.8984 39.9313 13.914 38.9157 15.1667 38.9157C16.4194 38.9157 17.4349 39.9313 17.4349 41.184Z" fill="white"/>
<path id="Vector_19" d="M42.4672 41.184C42.4672 42.4366 41.4516 43.4522 40.1989 43.4522C38.9462 43.4522 37.9307 42.4366 37.9307 41.184C37.9307 39.9313 38.9462 38.9157 40.1989 38.9157C41.4516 38.9157 42.4672 39.9313 42.4672 41.184Z" fill="white"/>
</g>
<defs>
<clipPath id="clip0_1_301">
<rect width="56" height="56" fill="white"/>
</clipPath>
</defs>
</svg>
