<svg width="56" height="56" viewBox="0 0 56 56" fill="none" xmlns="http://www.w3.org/2000/svg">
<g id="lift 1" clip-path="url(#clip0_1_292)">
<path id="Vector" d="M17.3359 21.781C17.3359 23.0345 16.3199 24.0505 15.0664 24.0505C13.8129 24.0505 12.7969 23.0345 12.7969 21.781C12.7969 20.5275 13.8129 19.5115 15.0664 19.5115C16.3199 19.5115 17.3359 20.5275 17.3359 21.781Z" fill="white"/>
<path id="Vector_2" d="M42.3809 21.781C42.3809 23.0345 41.3649 24.0505 40.1113 24.0505C38.8578 24.0505 37.8418 23.0345 37.8418 21.781C37.8418 20.5275 38.8578 19.5115 40.1113 19.5115C41.3649 19.5115 42.3809 20.5275 42.3809 21.781Z" fill="white"/>
<path id="Vector_3" d="M46.4874 33.3248C46.7557 32.6877 46.9044 31.9879 46.9044 31.2543V30.252H49.8519V18.9723C49.8519 16.5985 48.457 14.5447 46.4438 13.5864L41.2468 -0.0115356H14.5345L9.33746 13.5864C7.32428 14.5447 5.92932 16.5985 5.92932 18.9723V30.252H8.87689V31.2543C8.87689 31.9879 9.02557 32.6877 9.29388 33.3248H0V43.4257H10.2975L24.239 50.436L13.1972 55.9885H20.501L27.8906 52.2723L35.2803 55.9885H42.5836L31.5423 50.436L45.4838 43.4257H56V33.3248H46.4874ZM16.7933 3.26971H38.9879L42.7114 13.0109H13.0703L16.7933 3.26971ZM9.21057 26.9708V18.9723C9.21057 17.4944 10.4128 16.2922 11.8907 16.2922H43.8901C45.3684 16.2922 46.5707 17.4944 46.5707 18.9723V26.9708H34.6061V20.1408H21.1752V26.9708H9.21057ZM43.6231 30.252V31.2543C43.6231 32.3959 42.6943 33.3248 41.5527 33.3248C40.4115 33.3248 39.4827 32.3959 39.4827 31.2543V30.252H43.6231ZM36.2014 30.252V31.2543C36.2014 31.9879 36.3501 32.6877 36.6184 33.3248H19.1628C19.4312 32.6877 19.5798 31.9879 19.5798 31.2543V30.252H36.2014ZM24.4564 26.9708V23.4221H31.3248V26.9708H24.4564ZM16.2986 30.252V31.2543C16.2986 32.3959 15.3698 33.3248 14.2286 33.3248C13.087 33.3248 12.1581 32.3959 12.1581 31.2543V30.252H16.2986ZM27.8906 48.5997L17.6013 43.4253H38.18L27.8906 48.5997ZM52.7188 40.144H3.28125V36.6056H52.7188V40.144Z" fill="white"/>
</g>
<defs>
<clipPath id="clip0_1_292">
<rect width="56" height="56" fill="white"/>
</clipPath>
</defs>
</svg>
