<svg width="56" height="56" viewBox="0 0 56 56" fill="none" xmlns="http://www.w3.org/2000/svg">
<g id="spray-paint-gun 1" clip-path="url(#clip0_1_333)">
<path id="Vector" d="M46.9891 23.8651H49.9743V27.1464H46.9891V23.8651Z" fill="white"/>
<path id="Vector_2" d="M51.2091 23.8651H56.0003V27.1464H51.2091V23.8651Z" fill="white"/>
<path id="Vector_3" d="M45.9873 19.4849L48.8302 18.5745L49.8312 21.6993L46.9879 22.6098L45.9873 19.4849Z" fill="white"/>
<path id="Vector_4" d="M50 18.1999L54.5626 16.7383L55.5632 19.8632L51.001 21.3243L50 18.1999Z" fill="white"/>
<path id="Vector_5" d="M45.9865 31.5235L46.9875 28.3982L49.8304 29.3087L48.8298 32.434L45.9865 31.5235Z" fill="white"/>
<path id="Vector_6" d="M50.0068 32.8116L51.0079 29.6868L55.5704 31.1479L54.5698 34.2728L50.0068 32.8116Z" fill="white"/>
<path id="Vector_7" d="M12.6875 47.67V47.1487H15.9418L18.5032 39.8313H26.2184L28.7212 32.5143H41.0169V27.1754H45.3864V23.8942H41.0169V18.4985H21.1277V16.5306C24.0894 15.8154 26.2966 13.1447 26.2966 9.96637V-0.0115356H12.6777V9.96637C12.6777 13.1447 14.8848 15.8154 17.8465 16.5306V18.4985H6.11774V20.6877H0V30.3815H6.11774V32.5143H9.40668L4.28357 47.1487H9.40625V47.67C9.40625 52.2569 13.1378 55.9885 17.7247 55.9885H56V52.7072H17.7247C14.9472 52.7072 12.6875 50.4475 12.6875 47.67ZM23.0153 3.26971V5.93103H15.9589V3.26971H23.0153ZM15.9589 9.96637V9.21228H23.0153V9.96637C23.0153 11.8813 21.4576 13.439 19.5427 13.439H19.4316C17.5167 13.439 15.9589 11.8813 15.9589 9.96637ZM23.8728 36.55H19.6516L21.0645 32.5143H25.2537L23.8728 36.55ZM37.7357 29.233H34.3121V21.7797H37.7357V29.233ZM3.28125 27.1002V23.9689H6.11774V27.1002H3.28125ZM9.39899 29.233V21.7797H31.0309V29.233H9.39899ZM12.8828 32.5143H17.588L13.6138 43.8675H8.90894L12.8828 32.5143Z" fill="white"/>
</g>
<defs>
<clipPath id="clip0_1_333">
<rect width="56" height="56" fill="white"/>
</clipPath>
</defs>
</svg>
