<svg width="56" height="56" viewBox="0 0 56 56" fill="none" xmlns="http://www.w3.org/2000/svg">
<g id="target 1" clip-path="url(#clip0_1_324)">
<g id="Group">
<path id="Vector" d="M50.4142 30.8162C50.4284 25.5106 48.8096 20.4541 45.7945 16.2148L48.5173 16.8956L56 9.41281L50.6624 7.78444L52.71 5.73694L50.3898 3.41677L48.2748 5.53164L46.5874 0L39.1166 7.47075L39.7502 10.1868C35.8742 7.44888 31.3936 5.93327 26.8474 5.63992V1.84494H23.5661V5.64014C17.6658 6.02197 11.8748 8.46125 7.37514 12.9609C-2.45844 22.7945 -2.45844 38.7949 7.37514 48.6286C7.5532 48.8066 7.73422 48.9806 7.91654 49.1527L4.88303 51.8254V55.9658H8.16428V53.3074L10.4768 51.2701C14.7287 54.3422 19.8169 56 25.1612 56C25.1841 56 25.2074 56 25.2304 55.9999C30.5682 55.9857 35.6546 54.3177 39.9061 51.2433L42.2491 53.3075V55.9659H45.5304V51.8255L42.4659 49.1256C42.6498 48.9522 42.8321 48.7769 43.0116 48.5974C47.7672 43.8417 50.3962 37.5269 50.4142 30.8162ZM45.0434 6.18439L46.159 9.84112L49.8157 10.9566L47.5107 13.2616L43.6093 12.2862L42.7264 8.50139L45.0434 6.18439ZM25.2216 52.7186C25.2012 52.7188 25.1818 52.7188 25.1614 52.7188C19.3213 52.7188 13.8303 50.4433 9.69531 46.3084C1.1412 37.7542 1.1412 23.8353 9.69531 15.2811C17.8589 7.11758 30.9077 6.74537 39.5175 14.1629L37.1507 16.5295C33.8116 13.7261 29.6299 12.1983 25.2084 12.1983C20.234 12.1983 15.5622 14.1306 12.0535 17.6393C4.7999 24.893 4.7999 36.6956 12.0535 43.9492C15.5589 47.4545 20.2124 49.383 25.1624 49.383C25.1793 49.383 25.1966 49.3829 25.2135 49.3829C30.1635 49.3697 34.8228 47.4293 38.3331 43.9189C41.8434 40.4086 43.7838 35.7494 43.7971 30.7995C43.8089 26.3804 42.2828 22.1957 39.4713 18.8495L41.8388 16.482C45.2784 20.4665 47.1472 25.4937 47.1328 30.8075C47.1172 36.645 44.8295 42.139 40.6913 46.2773C36.5531 50.4153 31.0592 52.703 25.2216 52.7186ZM33.9437 30.7907C33.9437 35.6094 30.0235 39.5295 25.2049 39.5295C20.3863 39.5295 16.4661 35.6093 16.4661 30.7907C16.4661 25.9721 20.3863 22.052 25.2049 22.052C30.0235 22.052 33.9437 25.9721 33.9437 30.7907ZM32.4638 21.2167C30.4455 19.6827 27.9299 18.7706 25.2049 18.7706C18.577 18.7706 13.1848 24.1628 13.1848 30.7906C13.1848 37.4186 18.577 42.8107 25.2049 42.8107C31.8328 42.8107 37.225 37.4185 37.225 30.7906C37.225 28.0683 36.3147 25.5548 34.7833 23.5374L37.1406 21.1801C39.3365 23.896 40.5254 27.2521 40.5159 30.7906C40.5049 34.8673 38.9058 38.7057 36.0129 41.5986C33.12 44.4915 29.2816 46.0906 25.2047 46.1016C25.1905 46.1016 25.1768 46.1017 25.1626 46.1017C21.0892 46.1017 17.2589 44.514 14.3737 41.6289C8.39944 35.6546 8.39954 25.9337 14.3737 19.9594C17.2626 17.0705 21.1104 15.4794 25.2085 15.4794C28.7524 15.4794 32.1085 16.6702 34.82 18.8603L32.4638 21.2167Z" fill="white"/>
<path id="Vector_2" d="M21.7689 28.9008C22.6271 28.9008 23.4492 28.1462 23.4095 27.2601C23.3697 26.3712 22.6887 25.6195 21.7689 25.6195C20.9108 25.6195 20.0886 26.3741 20.1283 27.2601C20.1681 28.149 20.8492 28.9008 21.7689 28.9008Z" fill="white"/>
<path id="Vector_3" d="M28.7271 32.5774C27.8689 32.5774 27.0468 33.332 27.0865 34.218C27.1263 35.1069 27.8074 35.8586 28.7271 35.8586C29.5853 35.8586 30.4074 35.1041 30.3677 34.218C30.3279 33.3291 29.6468 32.5774 28.7271 32.5774Z" fill="white"/>
<path id="Vector_4" d="M20.1677 33.5015L27.9103 25.7589L30.2301 28.0788L22.4875 35.8213L20.1677 33.5015Z" fill="white"/>
</g>
</g>
<defs>
<clipPath id="clip0_1_324">
<rect width="56" height="56" fill="white"/>
</clipPath>
</defs>
</svg>
